<svg id="Calque_1" data-name="Calque 1" xmlns="http://www.w3.org/2000/svg" viewBox="0 0 512 512"><defs><style>.cls-1{fill:#fc5656;}</style></defs><path class="cls-1" d="M438.23,73.89c-38.74-38.61-80-13.58-105.84,12.16L88.31,330.13C62.45,356,35.4,395.32,76.16,436S156,449.55,181.87,423.69L426,179.61c25.86-25.75,50.89-67.1,12.28-105.72ZM205,63.88l51.73,51.73,52.55-52.68c3.58-3.58,7.15-6.92,10.85-10C314.64,25.15,298.79,0,256.6,0s-58.05,25.27-63.41,53c3.93,3.45,7.87,6.91,11.8,10.84ZM309.27,447.76,256.72,395.2,205,446.81c-3.93,3.93-7.75,7.63-11.68,11C199.27,486.14,216,512,256.6,512s57.56-26.1,63.4-54.47c-3.58-3.09-7.15-6.19-10.73-9.77ZM183.06,189.14H83.43C46.84,189.14,0,200.7,0,255.28c0,40.88,26.1,57.57,54.58,63.41,3.34-3.81,128.48-129.55,128.48-129.55ZM459,191.88c-3.09,3.58-128.59,129.67-128.59,129.67h98.2c36.59,0,83.43-8.7,83.43-66.27C512,213.21,486.85,197.36,459,191.88Zm-243.24-35.4,17.75-17.75L181.87,87C156,61.14,116.8,34.09,76,74.85c-29.8,29.79-23.12,58.87-7.39,82.35C73.53,156.84,215.72,156.48,215.72,156.48ZM297.59,354.2l-17.87,17.88,52.67,52.56c25.87,25.86,67.1,50.89,105.72,12.28,28.84-28.85,22.28-59.24,6.31-83.43C439.3,353.85,297.59,354.2,297.59,354.2Z"/></svg>