<svg id="Calque_1" data-name="Calque 1" xmlns="http://www.w3.org/2000/svg" viewBox="0 0 250.92 277.9"><defs><style>.cls-1{fill:#7f5af0;}</style></defs><path class="cls-1" d="M168.45,203.06a17,17,0,0,1-23.21,6.28h-.07L134,202.84a17,17,0,0,1-6.28-23.21h0v-.07L207.47,41.48,144.41,5.08a37.9,37.9,0,0,0-37.9,0L19,55.6A37.88,37.88,0,0,0,0,88.42V189.47A37.88,37.88,0,0,0,6.82,211L78.51,86.83a17,17,0,0,1,23.21-6.28h.07L113,87.05a17,17,0,0,1,6.28,23.2v.08L45.65,237.68l60.86,35.14a37.9,37.9,0,0,0,37.9,0l87.51-50.53a37.89,37.89,0,0,0,19-32.82v-101a37.82,37.82,0,0,0-5.19-19.13Z"/></svg>